<svg version="1.1" xmlns="http://www.w3.org/2000/svg" viewBox="0 0 200 200">
<line x1="0" y1="0" x2="0" y2="200" stroke="#CCC"/>
<line x1="20" y1="0" x2="20" y2="200" stroke="#CCC"/>
<line x1="40" y1="0" x2="40" y2="200" stroke="#CCC"/>
<line x1="60" y1="0" x2="60" y2="60" stroke="#CCC"/>
<line x1="60" y1="80" x2="60" y2="120" stroke="#CCC"/>
<line x1="60" y1="140" x2="60" y2="200" stroke="#CCC"/>
<line x1="80" y1="0" x2="80" y2="200" stroke="#CCC"/>
<line x1="100" y1="0" x2="100" y2="200" stroke="#CCC"/>
<line x1="120" y1="0" x2="120" y2="200" stroke="#CCC"/>
<line x1="140" y1="0" x2="140" y2="60" stroke="#CCC"/>
<line x1="140" y1="80" x2="140" y2="120" stroke="#CCC"/>
<line x1="140" y1="140" x2="140" y2="200" stroke="#CCC"/>
<line x1="160" y1="0" x2="160" y2="200" stroke="#CCC"/>
<line x1="180" y1="0" x2="180" y2="200" stroke="#CCC"/>
<line x1="200" y1="0" x2="200" y2="200" stroke="#CCC"/>
<path d="M45,65H75V95H65V75H45Z" stroke-width="2" stroke="#666" fill="#999" />
<path d="M45,105H55V125H75V135H45Z" stroke-width="2" stroke="#666" fill="#999" />
<path d="M125,65H155V95H145V75H125Z" stroke-width="2" stroke="#666" fill="#999" />
<path d="M125,105H135V125H155V135H125Z" stroke-width="2" stroke="#666" fill="#999" />
<line x1="0" y1="0" x2="200" y2="0" stroke="#CCC"/>
<line x1="0" y1="20" x2="200" y2="20" stroke="#CCC"/>
<line x1="0" y1="40" x2="200" y2="40" stroke="#CCC"/>
<line x1="0" y1="60" x2="200" y2="60" stroke="#CCC"/>
<line x1="0" y1="80" x2="60" y2="80" stroke="#CCC"/>
<line x1="80" y1="80" x2="140" y2="80" stroke="#CCC"/>
<line x1="160" y1="80" x2="200" y2="80" stroke="#CCC"/>
<line x1="0" y1="100" x2="200" y2="100" stroke="#CCC"/>
<line x1="0" y1="120" x2="40" y2="120" stroke="#CCC"/>
<line x1="60" y1="120" x2="120" y2="120" stroke="#CCC"/>
<line x1="140" y1="120" x2="200" y2="120" stroke="#CCC"/>
<line x1="0" y1="140" x2="200" y2="140" stroke="#CCC"/>
<line x1="0" y1="160" x2="200" y2="160" stroke="#CCC"/>
<line x1="0" y1="180" x2="200" y2="180" stroke="#CCC"/>
<line x1="0" y1="200" x2="200" y2="200" stroke="#CCC"/>
</svg>
