<svg version="1.1" xmlns="http://www.w3.org/2000/svg" viewBox="0 0 20 20">
<path d="M3,2H17V18H3Z" stroke="#999" fill="#C00"/>
<path d="M10,3L10.59,4.19L11.9,4.38L10.95,5.31L11.18,6.62L10,6L8.82,6.62L9.05,5.31L8.1,4.38L9.41,4.19Z" stroke-width="0.7" stroke="#000" fill="#FC0" />
<path d="M6.5,7L7.09,8.19L8.4,8.38L7.45,9.31L7.68,10.62L6.5,10L5.32,10.62L5.55,9.31L4.6,8.38L5.91,8.19Z" stroke-width="0.7" stroke="#000" fill="#FC0" />
<path d="M13.5,7L14.09,8.19L15.4,8.38L14.45,9.31L14.68,10.62L13.5,10L12.32,10.62L12.55,9.31L11.6,8.38L12.91,8.19Z" stroke-width="0.7" stroke="#000" fill="#FC0" />
<path d="M10,12L16,14V16L10,14L4,16V14Z" stroke="#000" fill="#FC0"/>
</svg>
